<svg xmlns="http://www.w3.org/2000/svg" xmlns:xlink="http://www.w3.org/1999/xlink" width="150" zoomAndPan="magnify" viewBox="0 0 112.5 37.5" height="50" preserveAspectRatio="xMidYMid meet" version="1.0"><defs><g/><clipPath id="50121dd62c"><path d="M 3.011719 13 L 21 13 L 21 35.40625 L 3.011719 35.40625 Z M 3.011719 13 " clip-rule="nonzero"/></clipPath><clipPath id="7fb9bfbb22"><path d="M 20 1.359375 L 42.238281 1.359375 L 42.238281 33 L 20 33 Z M 20 1.359375 " clip-rule="nonzero"/></clipPath></defs><g clip-path="url(#50121dd62c)"><path fill="#e8e8e8" d="M 16.625 34.839844 C 15.804688 34.558594 14.972656 34.289062 14.160156 33.988281 C 12.023438 33.191406 9.964844 32.152344 8.210938 30.699219 C 6.460938 29.242188 5.023438 27.359375 4.328125 25.195312 C 3.863281 23.757812 3.734375 22.242188 3.605469 20.738281 C 3.40625 18.4375 3.207031 16.132812 3.011719 13.832031 C 4.421875 16.207031 6.738281 17.917969 9.167969 19.238281 C 11.59375 20.5625 14.195312 21.558594 16.609375 22.902344 C 17.820312 23.578125 19.027344 24.375 19.757812 25.550781 C 20.535156 26.804688 20.691406 28.351562 20.585938 29.820312 C 20.496094 31.097656 20.222656 32.371094 20.316406 33.652344 C 20.363281 34.285156 20.5 34.988281 20.71875 35.628906 C 20.679688 35.613281 20.636719 35.597656 20.601562 35.578125 C 19.699219 35.183594 18.8125 34.71875 17.96875 34.199219 C 16.273438 33.148438 14.722656 31.859375 13.324219 30.40625 C 13.152344 30.21875 12.984375 30.03125 12.8125 29.847656 L 12.6875 29.707031 C 12.644531 29.660156 12.601562 29.609375 12.5625 29.5625 L 12.316406 29.277344 L 12.070312 28.988281 L 11.949219 28.839844 C 11.90625 28.792969 11.875 28.742188 11.832031 28.691406 L 11.367188 28.089844 C 11.332031 28.039062 11.289062 27.992188 11.25 27.9375 L 11.140625 27.78125 L 10.917969 27.472656 L 10.695312 27.160156 C 10.660156 27.105469 10.621094 27.054688 10.589844 27.003906 L 10.484375 26.84375 L 10.070312 26.203125 L 9.964844 26.042969 C 9.933594 25.992188 9.898438 25.933594 9.867188 25.878906 L 9.671875 25.550781 C 8.628906 23.804688 7.753906 21.941406 7.039062 20.019531 C 7.613281 21.988281 8.355469 23.917969 9.285156 25.765625 L 9.460938 26.109375 C 9.488281 26.167969 9.515625 26.226562 9.550781 26.285156 L 9.644531 26.453125 L 10.015625 27.136719 L 10.109375 27.304688 C 10.144531 27.363281 10.175781 27.414062 10.210938 27.472656 L 10.414062 27.800781 L 10.617188 28.132812 L 10.714844 28.296875 C 10.75 28.355469 10.785156 28.40625 10.824219 28.457031 L 11.253906 29.105469 C 11.292969 29.15625 11.324219 29.214844 11.363281 29.265625 L 11.476562 29.421875 L 11.703125 29.738281 L 11.933594 30.054688 C 11.972656 30.105469 12.011719 30.160156 12.054688 30.210938 L 12.175781 30.363281 C 12.335938 30.566406 12.496094 30.773438 12.664062 30.976562 C 13.84375 32.398438 15.15625 33.707031 16.625 34.839844 Z M 16.625 34.839844 " fill-opacity="1" fill-rule="nonzero"/></g><g clip-path="url(#7fb9bfbb22)"><path fill="#a9a084" d="M 41.4375 18.558594 C 40.429688 21.785156 38.289062 24.570312 35.742188 26.796875 C 34.886719 27.542969 33.980469 28.230469 33.007812 28.820312 C 31.566406 29.695312 29.960938 30.269531 28.386719 30.859375 C 26.917969 31.40625 25.441406 31.9375 23.964844 32.457031 C 23.71875 32.539062 23.46875 32.628906 23.222656 32.714844 C 23.242188 32.601562 23.261719 32.488281 23.28125 32.378906 L 23.320312 32.144531 C 23.335938 32.0625 23.351562 31.988281 23.367188 31.90625 L 23.472656 31.441406 L 23.5 31.320312 L 23.53125 31.203125 L 23.589844 30.96875 L 23.652344 30.730469 C 23.671875 30.652344 23.691406 30.574219 23.71875 30.496094 C 23.902344 29.871094 24.101562 29.253906 24.335938 28.632812 L 24.511719 28.171875 C 24.539062 28.09375 24.570312 28.015625 24.601562 27.9375 L 24.695312 27.710938 L 24.890625 27.253906 L 24.984375 27.027344 C 25.019531 26.949219 25.054688 26.875 25.089844 26.800781 C 25.226562 26.496094 25.363281 26.195312 25.503906 25.898438 L 25.949219 25.003906 C 26.019531 24.851562 26.105469 24.707031 26.179688 24.558594 L 26.417969 24.117188 C 26.496094 23.96875 26.574219 23.820312 26.652344 23.671875 L 26.902344 23.238281 L 27.152344 22.800781 C 27.238281 22.65625 27.320312 22.507812 27.410156 22.367188 L 27.933594 21.507812 C 28.101562 21.21875 28.292969 20.9375 28.472656 20.65625 C 28.65625 20.375 28.835938 20.089844 29.023438 19.8125 L 29.597656 18.976562 L 29.882812 18.558594 L 29.957031 18.457031 L 30.03125 18.351562 L 30.175781 18.148438 L 30.773438 17.328125 C 30.871094 17.191406 30.972656 17.050781 31.070312 16.914062 L 31.378906 16.507812 C 31.789062 15.96875 32.191406 15.425781 32.621094 14.898438 C 34.300781 12.773438 36.078125 10.710938 37.917969 8.707031 C 35.921875 10.5625 33.976562 12.46875 32.121094 14.46875 C 31.648438 14.964844 31.199219 15.472656 30.738281 15.984375 L 30.398438 16.367188 C 30.285156 16.496094 30.175781 16.628906 30.0625 16.753906 L 29.398438 17.535156 L 29.234375 17.726562 L 29.148438 17.828125 L 29.066406 17.925781 L 28.09375 19.121094 C 27.882812 19.390625 27.671875 19.664062 27.464844 19.9375 C 27.257812 20.214844 27.046875 20.484375 26.847656 20.761719 L 26.238281 21.597656 C 26.132812 21.734375 26.039062 21.882812 25.9375 22.023438 L 25.648438 22.449219 L 25.355469 22.875 C 25.257812 23.015625 25.164062 23.160156 25.070312 23.308594 L 24.792969 23.742188 C 24.695312 23.890625 24.601562 24.03125 24.511719 24.183594 L 23.972656 25.074219 C 23.800781 25.378906 23.632812 25.679688 23.457031 25.988281 C 23.417969 26.0625 23.375 26.136719 23.332031 26.214844 L 23.207031 26.445312 L 22.96875 26.914062 L 22.84375 27.144531 C 22.800781 27.21875 22.769531 27.300781 22.730469 27.382812 L 22.503906 27.859375 C 22.203125 28.492188 21.933594 29.148438 21.675781 29.808594 C 21.644531 29.890625 21.617188 29.976562 21.585938 30.058594 L 21.5 30.308594 L 21.480469 30.371094 C 21.480469 30.351562 21.480469 30.328125 21.480469 30.308594 C 21.46875 29.707031 21.421875 29.082031 21.355469 28.480469 C 21.234375 27.371094 21.042969 26.351562 20.917969 25.726562 C 20.835938 25.332031 20.78125 25.089844 20.773438 25.078125 C 20.046875 22.820312 19.628906 20.484375 20.496094 18.1875 C 21.117188 16.550781 22.292969 15.261719 23.671875 14.15625 C 24.628906 13.386719 25.6875 12.695312 26.71875 12.042969 C 27.125 11.785156 27.527344 11.527344 27.933594 11.265625 C 28.785156 10.714844 29.632812 10.160156 30.476562 9.582031 C 32.625 8.109375 34.699219 6.53125 36.523438 4.714844 C 37.5625 3.679688 38.515625 2.574219 39.363281 1.367188 C 40.339844 4.136719 41.296875 6.933594 41.796875 9.824219 C 42.28125 12.730469 42.304688 15.753906 41.4375 18.558594 Z M 41.4375 18.558594 " fill-opacity="1" fill-rule="nonzero"/></g><g fill="#a9a084" fill-opacity="1"><g transform="translate(46.718153, 15.16358)"><g><path d="M 4.46875 -8.109375 L 0.375 -8.109375 L 0.375 -8.015625 L 0.5625 -8.015625 C 1.375 -8.015625 1.65625 -7.78125 1.65625 -6.6875 L 1.65625 -1.421875 C 1.65625 -0.3125 1.375 -0.078125 0.5625 -0.078125 L 0.375 -0.078125 L 0.375 0 L 4.484375 0 C 8.015625 0 9.796875 -1.09375 9.796875 -4.09375 C 9.796875 -7.078125 7.703125 -8.109375 4.46875 -8.109375 Z M 4.484375 -0.078125 L 4.234375 -0.078125 L 4.234375 -8.015625 L 4.46875 -8.015625 C 6.625 -8.015625 7.109375 -6.8125 7.109375 -4.046875 C 7.109375 -1.109375 6.734375 -0.078125 4.484375 -0.078125 Z M 4.484375 -0.078125 "/></g></g></g><g fill="#a9a084" fill-opacity="1"><g transform="translate(57.85572, 15.16358)"><g><path d="M 9.9375 -1.5 C 9.8125 -0.84375 9.546875 -0.46875 9.09375 -0.46875 C 8.640625 -0.46875 8.40625 -0.84375 8.359375 -1.90625 C 8.25 -3.828125 6.765625 -4.21875 5.59375 -4.28125 C 8.21875 -4.359375 8.890625 -5.09375 8.890625 -6.25 C 8.890625 -7.40625 8.15625 -8.109375 5.15625 -8.109375 L 0.375 -8.109375 L 0.375 -8.015625 L 0.5625 -8.015625 C 1.375 -8.015625 1.65625 -7.78125 1.65625 -6.6875 L 1.65625 -1.421875 C 1.65625 -0.3125 1.375 -0.078125 0.5625 -0.078125 L 0.375 -0.078125 L 0.375 0 L 5.5 0 L 5.5 -0.078125 L 5.3125 -0.078125 C 4.5 -0.078125 4.234375 -0.3125 4.234375 -1.421875 L 4.234375 -4.28125 L 4.65625 -4.28125 C 5.25 -4.28125 5.65625 -4.046875 5.6875 -2.390625 C 5.765625 -0.203125 6.6875 0.1875 7.859375 0.1875 C 9.078125 0.1875 9.765625 -0.234375 10.015625 -1.453125 Z M 6.25 -6.25 C 6.25 -4.953125 5.796875 -4.375 4.453125 -4.375 L 4.234375 -4.375 L 4.234375 -8.015625 L 4.34375 -8.015625 C 5.65625 -8.015625 6.25 -7.484375 6.25 -6.25 Z M 6.25 -6.25 "/></g></g></g><g fill="#a9a084" fill-opacity="1"><g transform="translate(68.510591, 15.16358)"><g><path d="M 8.890625 -3.4375 C 8.3125 -1.796875 6.765625 -0.09375 4.25 -0.09375 L 4.234375 -0.09375 L 4.234375 -4 C 5.46875 -3.953125 6.1875 -3.109375 6.375 -1.84375 L 6.4375 -1.84375 L 6.4375 -6.34375 L 6.375 -6.34375 C 6.1875 -5.015625 5.46875 -4.109375 4.234375 -4.078125 L 4.234375 -8.015625 L 4.46875 -8.015625 C 6.421875 -8.015625 8.4375 -6.53125 8.78125 -4.625 L 8.84375 -4.625 L 8.734375 -8.109375 L 0.375 -8.109375 L 0.375 -8.015625 L 0.5625 -8.015625 C 1.375 -8.015625 1.65625 -7.78125 1.65625 -6.6875 L 1.65625 -1.421875 C 1.65625 -0.3125 1.375 -0.078125 0.5625 -0.078125 L 0.375 -0.078125 L 0.375 0 L 8.75 0 L 8.953125 -3.4375 Z M 8.890625 -3.4375 "/></g></g></g><g fill="#a9a084" fill-opacity="1"><g transform="translate(78.882905, 15.16358)"><g><path d="M 10.3125 -0.078125 C 9.84375 -0.078125 9.390625 -0.203125 9 -1.171875 L 6.171875 -8.109375 L 3.46875 -8.109375 L 3.984375 -6.828125 L 2.234375 -2.5625 C 1.546875 -0.859375 0.71875 -0.1875 0.046875 -0.078125 L 0.046875 0 L 3.921875 0 L 3.921875 -0.078125 C 2.578125 -0.078125 2.234375 -1.703125 2.625 -3.15625 L 5.453125 -3.15625 L 6.171875 -1.359375 C 6.484375 -0.546875 6.015625 -0.078125 5.171875 -0.078125 L 5.171875 0 L 10.421875 0 L 10.421875 -0.078125 Z M 2.65625 -3.25 C 2.703125 -3.375 2.75 -3.515625 2.796875 -3.625 L 4.046875 -6.6875 L 5.421875 -3.25 Z M 2.65625 -3.25 "/></g></g></g><g fill="#a9a084" fill-opacity="1"><g transform="translate(90.044016, 15.16358)"><g><path d="M 12.796875 -8.015625 L 12.984375 -8.015625 L 12.984375 -8.109375 L 9.078125 -8.109375 L 6.828125 -2.078125 L 4.3125 -8.109375 L 0.390625 -8.109375 L 0.390625 -8.015625 L 0.578125 -8.015625 C 1.3125 -8.015625 1.609375 -7.828125 1.65625 -7 L 1.65625 -3.484375 C 1.65625 -2.234375 1.03125 -0.078125 0.1875 -0.078125 L 0 -0.078125 L 0 0 L 3.828125 0 L 3.828125 -0.078125 L 3.640625 -0.078125 C 2.515625 -0.078125 1.765625 -2.234375 1.765625 -3.484375 L 1.765625 -7.703125 L 4.671875 -0.59375 L 6.40625 -0.59375 L 9.125 -7.875 L 9.125 -1.421875 C 9.125 -0.3125 8.859375 -0.078125 8.046875 -0.078125 L 7.859375 -0.078125 L 7.859375 0 L 12.984375 0 L 12.984375 -0.078125 L 12.796875 -0.078125 C 11.984375 -0.078125 11.703125 -0.3125 11.703125 -1.421875 L 11.703125 -6.6875 C 11.703125 -7.78125 11.984375 -8.015625 12.796875 -8.015625 Z M 12.796875 -8.015625 "/></g></g></g><g fill="#a9a084" fill-opacity="1"><g transform="translate(45.860145, 29.676185)"><g><path d="M 5.40625 -3.46875 C 8.171875 -3.46875 8.890625 -4.4375 8.890625 -5.828125 C 8.890625 -7.234375 8.171875 -8.109375 5.40625 -8.109375 L 0.375 -8.109375 L 0.375 -8.015625 L 0.5625 -8.015625 C 1.375 -8.015625 1.65625 -7.78125 1.65625 -6.6875 L 1.65625 -1.421875 C 1.65625 -0.3125 1.375 -0.078125 0.5625 -0.078125 L 0.375 -0.078125 L 0.375 0 L 5.96875 0 L 5.96875 -0.078125 L 5.78125 -0.078125 C 4.625 -0.078125 4.234375 -0.3125 4.234375 -1.421875 L 4.234375 -3.46875 Z M 6.25 -5.828125 C 6.25 -4.25 5.796875 -3.546875 4.453125 -3.546875 L 4.234375 -3.546875 L 4.234375 -8.015625 L 4.34375 -8.015625 C 5.65625 -8.015625 6.25 -7.34375 6.25 -5.828125 Z M 6.25 -5.828125 "/></g></g></g><g fill="#a9a084" fill-opacity="1"><g transform="translate(55.702666, 29.676185)"><g><path d="M 8.171875 -3.90625 C 7.609375 -2.03125 6.109375 -0.078125 4.25 -0.078125 L 4.234375 -0.078125 L 4.234375 -6.6875 C 4.234375 -7.78125 4.5 -8.015625 5.3125 -8.015625 L 5.5 -8.015625 L 5.5 -8.109375 L 0.375 -8.109375 L 0.375 -8.015625 L 0.5625 -8.015625 C 1.375 -8.015625 1.65625 -7.78125 1.65625 -6.6875 L 1.65625 -1.421875 C 1.65625 -0.3125 1.375 -0.078125 0.5625 -0.078125 L 0.375 -0.078125 L 0.375 0 L 8.171875 0 L 8.25 -3.90625 Z M 8.171875 -3.90625 "/></g></g></g><g fill="#a9a084" fill-opacity="1"><g transform="translate(65.003624, 29.676185)"><g><path d="M 10.3125 -0.078125 C 9.84375 -0.078125 9.390625 -0.203125 9 -1.171875 L 6.171875 -8.109375 L 3.46875 -8.109375 L 3.984375 -6.828125 L 2.234375 -2.5625 C 1.546875 -0.859375 0.71875 -0.1875 0.046875 -0.078125 L 0.046875 0 L 3.921875 0 L 3.921875 -0.078125 C 2.578125 -0.078125 2.234375 -1.703125 2.625 -3.15625 L 5.453125 -3.15625 L 6.171875 -1.359375 C 6.484375 -0.546875 6.015625 -0.078125 5.171875 -0.078125 L 5.171875 0 L 10.421875 0 L 10.421875 -0.078125 Z M 2.65625 -3.25 C 2.703125 -3.375 2.75 -3.515625 2.796875 -3.625 L 4.046875 -6.6875 L 5.421875 -3.25 Z M 2.65625 -3.25 "/></g></g></g><g fill="#a9a084" fill-opacity="1"><g transform="translate(76.164737, 29.676185)"><g><path d="M 6.25 -8.109375 L 6.25 -8.015625 L 6.4375 -8.015625 C 7.625 -8.015625 8.21875 -5.546875 8.21875 -4.375 L 8.21875 -1.234375 L 4.453125 -8.109375 L 0.328125 -8.109375 L 0.328125 -8.015625 L 0.515625 -8.015625 C 1.265625 -8.015625 1.65625 -7.828125 1.703125 -6.953125 L 1.71875 -3.71875 C 1.71875 -2.5625 1.234375 -0.078125 0.21875 -0.078125 L 0.03125 -0.078125 L 0.03125 0 L 3.890625 0 L 3.890625 -0.078125 L 3.703125 -0.078125 C 2.515625 -0.078125 1.796875 -2.5625 1.796875 -3.71875 L 1.796875 -7.78125 L 5.890625 0 L 8.3125 0 L 8.3125 -4.375 C 8.3125 -5.546875 8.796875 -8.015625 9.8125 -8.015625 L 10 -8.015625 L 10 -8.109375 Z M 6.25 -8.109375 "/></g></g></g><g fill="#a9a084" fill-opacity="1"><g transform="translate(86.77251, 29.676185)"><g><path d="M 8.40625 -4.4375 L 8.46875 -4.4375 L 8.359375 -8.109375 L 0.453125 -8.109375 L 0.328125 -4.4375 L 0.40625 -4.4375 C 0.71875 -5.921875 1.5625 -7.640625 3.125 -7.96875 L 3.125 -1.421875 C 3.125 -0.3125 2.84375 -0.078125 2.203125 -0.078125 L 1.78125 -0.078125 L 1.78125 0 L 7.078125 0 L 7.078125 -0.078125 L 6.65625 -0.078125 C 5.96875 -0.078125 5.6875 -0.3125 5.6875 -1.421875 L 5.6875 -7.96875 C 7.234375 -7.625 8.078125 -5.90625 8.40625 -4.4375 Z M 8.40625 -4.4375 "/></g></g></g><g fill="#a9a084" fill-opacity="1"><g transform="translate(96.261837, 29.676185)"><g><path d="M 5.859375 -1.1875 C 5.859375 -0.40625 5.25 0.078125 4.078125 0.078125 C 2.828125 0.078125 1.890625 -0.796875 1.03125 -3.359375 L 0.96875 -3.359375 L 0.75 0.0625 L 0.828125 0.0625 C 0.890625 -0.1875 1.078125 -0.21875 1.265625 -0.21875 C 1.796875 -0.21875 2.75 0.1875 4.0625 0.1875 C 6.21875 0.1875 7.453125 -0.8125 7.453125 -2.328125 C 7.453125 -3.96875 6.40625 -4.609375 4.9375 -5.09375 C 3.0625 -5.59375 2.375 -6.09375 2.375 -7.0625 C 2.375 -7.78125 2.828125 -8.1875 3.890625 -8.1875 C 5.203125 -8.1875 5.9375 -7.375 6.75 -5.015625 L 6.828125 -5.015625 L 7.046875 -8.171875 L 6.96875 -8.171875 C 6.90625 -7.90625 6.671875 -7.875 6.484375 -7.875 C 5.921875 -7.875 5.046875 -8.296875 3.890625 -8.296875 C 2.234375 -8.296875 0.75 -7.53125 0.75 -5.9375 C 0.75 -4.578125 1.328125 -3.796875 3.25 -3.109375 C 4.703125 -2.640625 5.859375 -2.328125 5.859375 -1.1875 Z M 5.859375 -1.1875 "/></g></g></g></svg>